<mxfile host="app.diagrams.net" modified="2022-06-11T12:47:58.120Z" agent="5.0 (Windows)" etag="dMIJJMQ8Gej__0HIlTl2" version="19.0.3" type="github">
  <diagram id="anqt9Zf3QxN150gZl7nN" name="Page-1">
    <mxGraphModel dx="292" dy="1798" grid="1" gridSize="10" guides="1" tooltips="1" connect="1" arrows="1" fold="1" page="1" pageScale="1" pageWidth="1500" pageHeight="400" math="0" shadow="0">
      <root>
        <mxCell id="0" />
        <mxCell id="1" parent="0" />
        <mxCell id="CNNBCrnFb_RWiXShZdrg-1" value="&lt;div style=&quot;font-size: 20px&quot;&gt;&lt;font style=&quot;font-size: 20px&quot;&gt;&lt;b&gt;Body&lt;/b&gt;&lt;/font&gt;&lt;/div&gt;" style="text;html=1;align=center;verticalAlign=middle;resizable=0;points=[];autosize=1;strokeColor=none;fillColor=none;fontSize=15;" parent="1" vertex="1">
          <mxGeometry x="1920" y="230" width="70" height="20" as="geometry" />
        </mxCell>
        <mxCell id="CNNBCrnFb_RWiXShZdrg-2" value="&lt;div&gt;&lt;b&gt;32.7kHz/4MHz&lt;br&gt;&lt;/b&gt;&lt;/div&gt;&lt;div&gt;&lt;b&gt;SG_3030CM&lt;/b&gt;&lt;/div&gt;&lt;div&gt;&lt;b&gt;SG_8018CM&lt;/b&gt;&lt;/div&gt;" style="pointerEvents=1;verticalLabelPosition=bottom;shadow=0;dashed=0;align=center;html=1;verticalAlign=top;shape=mxgraph.electrical.signal_sources.source;aspect=fixed;points=[[0.5,0,0],[1,0.5,0],[0.5,1,0],[0,0.5,0]];elSignalType=square;" parent="1" vertex="1">
          <mxGeometry x="1620" y="45" width="50" height="50" as="geometry" />
        </mxCell>
        <mxCell id="CNNBCrnFb_RWiXShZdrg-3" value="&lt;div&gt;&lt;font size=&quot;1&quot;&gt;&lt;b style=&quot;font-size: 15px&quot;&gt;Active LPF&lt;/b&gt;&lt;/font&gt;&lt;/div&gt;&lt;div&gt;&lt;b&gt;&lt;i&gt;f&lt;sub&gt;c&lt;/sub&gt;&lt;/i&gt; = 31.2kHz&lt;/b&gt;&lt;/div&gt;&lt;div&gt;&lt;b&gt;/&lt;/b&gt;&lt;/div&gt;&lt;div&gt;&lt;b&gt;&lt;i&gt;f&lt;sub&gt;c&lt;/sub&gt;&lt;/i&gt; = 7.96MHz&lt;/b&gt;&lt;b&gt;&lt;/b&gt;&lt;/div&gt;" style="whiteSpace=wrap;html=1;" parent="1" vertex="1">
          <mxGeometry x="1720" y="30" width="110" height="80" as="geometry" />
        </mxCell>
        <mxCell id="CNNBCrnFb_RWiXShZdrg-4" value="" style="endArrow=none;html=1;rounded=0;fontSize=15;exitX=1;exitY=0.5;exitDx=0;exitDy=0;exitPerimeter=0;" parent="1" source="CNNBCrnFb_RWiXShZdrg-2" target="CNNBCrnFb_RWiXShZdrg-3" edge="1">
          <mxGeometry width="50" height="50" relative="1" as="geometry">
            <mxPoint x="2020" y="282.5" as="sourcePoint" />
            <mxPoint x="2070" y="232.5" as="targetPoint" />
          </mxGeometry>
        </mxCell>
        <mxCell id="CNNBCrnFb_RWiXShZdrg-5" value="" style="endArrow=none;html=1;rounded=0;fontSize=15;exitDx=0;exitDy=0;exitPerimeter=0;startArrow=none;entryX=0;entryY=0.5;entryDx=0;entryDy=0;entryPerimeter=0;" parent="1" source="CNNBCrnFb_RWiXShZdrg-7" target="CNNBCrnFb_RWiXShZdrg-12" edge="1">
          <mxGeometry width="50" height="50" relative="1" as="geometry">
            <mxPoint x="1800" y="68.82000000000005" as="sourcePoint" />
            <mxPoint x="1980" y="70.5" as="targetPoint" />
          </mxGeometry>
        </mxCell>
        <mxCell id="CNNBCrnFb_RWiXShZdrg-6" value="" style="endArrow=none;html=1;rounded=0;fontSize=15;" parent="1" edge="1">
          <mxGeometry width="50" height="50" relative="1" as="geometry">
            <mxPoint x="1860" y="242.5" as="sourcePoint" />
            <mxPoint x="1859.83" y="70" as="targetPoint" />
          </mxGeometry>
        </mxCell>
        <mxCell id="CNNBCrnFb_RWiXShZdrg-7" value="" style="shape=waypoint;sketch=0;fillStyle=solid;size=6;pointerEvents=1;points=[];fillColor=none;resizable=0;rotatable=0;perimeter=centerPerimeter;snapToPoint=1;fontSize=15;" parent="1" vertex="1">
          <mxGeometry x="1840" y="50" width="40" height="40" as="geometry" />
        </mxCell>
        <mxCell id="CNNBCrnFb_RWiXShZdrg-8" value="" style="endArrow=none;html=1;rounded=0;fontSize=15;exitDx=0;exitDy=0;startArrow=none;exitX=1;exitY=0.5;" parent="1" source="CNNBCrnFb_RWiXShZdrg-3" target="CNNBCrnFb_RWiXShZdrg-7" edge="1">
          <mxGeometry width="50" height="50" relative="1" as="geometry">
            <mxPoint x="1870" y="80" as="sourcePoint" />
            <mxPoint x="1940" y="80" as="targetPoint" />
          </mxGeometry>
        </mxCell>
        <mxCell id="CNNBCrnFb_RWiXShZdrg-9" value="" style="whiteSpace=wrap;html=1;fontSize=15;fillColor=#fff2cc;strokeColor=#d6b656;" parent="1" vertex="1">
          <mxGeometry x="1890" y="212.5" width="20" height="60" as="geometry" />
        </mxCell>
        <mxCell id="CNNBCrnFb_RWiXShZdrg-10" value="" style="whiteSpace=wrap;html=1;fontSize=15;fillColor=#fff2cc;strokeColor=#d6b656;" parent="1" vertex="1">
          <mxGeometry x="2000" y="212.5" width="20" height="60" as="geometry" />
        </mxCell>
        <mxCell id="CNNBCrnFb_RWiXShZdrg-11" value="" style="endArrow=none;html=1;rounded=0;fontSize=15;entryX=0;entryY=0.5;entryDx=0;entryDy=0;startArrow=none;" parent="1" target="CNNBCrnFb_RWiXShZdrg-9" edge="1">
          <mxGeometry width="50" height="50" relative="1" as="geometry">
            <mxPoint x="1860" y="242.5" as="sourcePoint" />
            <mxPoint x="2080" y="80" as="targetPoint" />
          </mxGeometry>
        </mxCell>
        <mxCell id="CNNBCrnFb_RWiXShZdrg-12" value="&lt;b&gt;10nF&lt;/b&gt;" style="pointerEvents=1;verticalLabelPosition=bottom;shadow=0;dashed=0;align=center;html=1;verticalAlign=top;shape=mxgraph.electrical.capacitors.capacitor_1;fontSize=15;" parent="1" vertex="1">
          <mxGeometry x="2040" y="50" width="60" height="38" as="geometry" />
        </mxCell>
        <mxCell id="CNNBCrnFb_RWiXShZdrg-13" value="&lt;b&gt;10nF&lt;/b&gt;" style="pointerEvents=1;verticalLabelPosition=bottom;shadow=0;dashed=0;align=center;html=1;verticalAlign=top;shape=mxgraph.electrical.capacitors.capacitor_1;fontSize=15;" parent="1" vertex="1">
          <mxGeometry x="2040" y="223.5" width="60" height="38" as="geometry" />
        </mxCell>
        <mxCell id="CNNBCrnFb_RWiXShZdrg-14" value="" style="endArrow=none;html=1;rounded=0;fontSize=15;exitDx=0;exitDy=0;startArrow=none;entryX=0;entryY=0.5;entryDx=0;entryDy=0;entryPerimeter=0;exitX=1;exitY=0.5;" parent="1" source="CNNBCrnFb_RWiXShZdrg-10" target="CNNBCrnFb_RWiXShZdrg-13" edge="1">
          <mxGeometry width="50" height="50" relative="1" as="geometry">
            <mxPoint x="1870" y="80" as="sourcePoint" />
            <mxPoint x="2090" y="81" as="targetPoint" />
          </mxGeometry>
        </mxCell>
        <mxCell id="CNNBCrnFb_RWiXShZdrg-15" value="" style="endArrow=classic;html=1;rounded=0;fontSize=24;exitX=1;exitY=0.5;exitDx=0;exitDy=0;" parent="1" source="CNNBCrnFb_RWiXShZdrg-9" edge="1">
          <mxGeometry width="50" height="50" relative="1" as="geometry">
            <mxPoint x="2020" y="272.5" as="sourcePoint" />
            <mxPoint x="1930" y="242.5" as="targetPoint" />
          </mxGeometry>
        </mxCell>
        <mxCell id="CNNBCrnFb_RWiXShZdrg-16" value="" style="endArrow=classic;html=1;rounded=0;fontSize=24;entryX=0;entryY=0.5;entryDx=0;entryDy=0;" parent="1" target="CNNBCrnFb_RWiXShZdrg-10" edge="1">
          <mxGeometry width="50" height="50" relative="1" as="geometry">
            <mxPoint x="1980" y="242.5" as="sourcePoint" />
            <mxPoint x="1940" y="252.5" as="targetPoint" />
          </mxGeometry>
        </mxCell>
        <mxCell id="CNNBCrnFb_RWiXShZdrg-17" value="" style="endArrow=none;html=1;rounded=0;fontSize=15;exitDx=0;exitDy=0;exitPerimeter=0;startArrow=none;entryX=0;entryY=0.5;entryDx=0;entryDy=0;" parent="1" source="CNNBCrnFb_RWiXShZdrg-23" edge="1">
          <mxGeometry width="50" height="50" relative="1" as="geometry">
            <mxPoint x="1870" y="80" as="sourcePoint" />
            <mxPoint x="2160" y="69" as="targetPoint" />
          </mxGeometry>
        </mxCell>
        <mxCell id="CNNBCrnFb_RWiXShZdrg-18" value="" style="endArrow=none;html=1;rounded=0;fontSize=15;startArrow=none;entryX=0;entryY=0.5;entryDx=0;entryDy=0;" parent="1" source="CNNBCrnFb_RWiXShZdrg-25" edge="1">
          <mxGeometry width="50" height="50" relative="1" as="geometry">
            <mxPoint x="2100" y="242.21000000000004" as="sourcePoint" />
            <mxPoint x="2160" y="242.5" as="targetPoint" />
          </mxGeometry>
        </mxCell>
        <mxCell id="CNNBCrnFb_RWiXShZdrg-19" value="&lt;div style=&quot;font-size: 21px&quot;&gt;V&lt;sub&gt;bias&lt;/sub&gt;&lt;/div&gt;&lt;div style=&quot;font-size: 15px&quot;&gt;(=V&lt;sub&gt;dd&lt;/sub&gt; / 2)&lt;br&gt;&lt;/div&gt;" style="verticalLabelPosition=top;verticalAlign=bottom;shape=mxgraph.electrical.signal_sources.vdd;shadow=0;dashed=0;align=center;strokeWidth=1;fontSize=24;html=1;flipV=1;rotation=-90;" parent="1" vertex="1">
          <mxGeometry x="2060" y="140" width="60" height="40" as="geometry" />
        </mxCell>
        <mxCell id="CNNBCrnFb_RWiXShZdrg-20" value="&lt;div&gt;&lt;b&gt;5.1kΩ&lt;/b&gt;&lt;/div&gt;" style="pointerEvents=1;verticalLabelPosition=bottom;shadow=0;dashed=0;align=center;html=1;verticalAlign=top;shape=mxgraph.electrical.resistors.resistor_2;rotation=-90;labelPosition=center;direction=west;spacing=3;spacingTop=0;spacingLeft=0;" parent="1" vertex="1">
          <mxGeometry x="2090" y="100" width="40" height="20" as="geometry" />
        </mxCell>
        <mxCell id="CNNBCrnFb_RWiXShZdrg-21" value="&lt;div&gt;&lt;b&gt;5.1kΩ&lt;/b&gt;&lt;/div&gt;" style="pointerEvents=1;verticalLabelPosition=bottom;shadow=0;dashed=0;align=center;html=1;verticalAlign=top;shape=mxgraph.electrical.resistors.resistor_2;rotation=-90;labelPosition=center;direction=west;spacing=3;spacingTop=0;spacingLeft=0;" parent="1" vertex="1">
          <mxGeometry x="2090" y="192.5" width="40" height="20" as="geometry" />
        </mxCell>
        <mxCell id="CNNBCrnFb_RWiXShZdrg-22" value="" style="endArrow=none;html=1;rounded=0;fontSize=15;exitDx=0;exitDy=0;exitPerimeter=0;startArrow=none;entryX=0.563;entryY=0.505;entryDx=0;entryDy=0;exitX=0;exitY=0.5;entryPerimeter=0;" parent="1" source="CNNBCrnFb_RWiXShZdrg-20" target="CNNBCrnFb_RWiXShZdrg-23" edge="1">
          <mxGeometry width="50" height="50" relative="1" as="geometry">
            <mxPoint x="2110" y="78.99999999999989" as="sourcePoint" />
            <mxPoint x="2170" y="78.99999999999989" as="targetPoint" />
          </mxGeometry>
        </mxCell>
        <mxCell id="CNNBCrnFb_RWiXShZdrg-23" value="" style="shape=waypoint;sketch=0;fillStyle=solid;size=6;pointerEvents=1;points=[];fillColor=none;resizable=0;rotatable=0;perimeter=centerPerimeter;snapToPoint=1;fontSize=21;" parent="1" vertex="1">
          <mxGeometry x="2090" y="49" width="40" height="40" as="geometry" />
        </mxCell>
        <mxCell id="CNNBCrnFb_RWiXShZdrg-24" value="" style="endArrow=none;html=1;rounded=0;fontSize=15;exitDx=0;exitDy=0;exitPerimeter=0;startArrow=none;entryDx=0;entryDy=0;exitX=1;exitY=0.5;" parent="1" source="CNNBCrnFb_RWiXShZdrg-12" target="CNNBCrnFb_RWiXShZdrg-23" edge="1">
          <mxGeometry width="50" height="50" relative="1" as="geometry">
            <mxPoint x="2100" y="68.99999999999989" as="sourcePoint" />
            <mxPoint x="2160" y="68.99999999999989" as="targetPoint" />
          </mxGeometry>
        </mxCell>
        <mxCell id="CNNBCrnFb_RWiXShZdrg-25" value="" style="shape=waypoint;sketch=0;fillStyle=solid;size=6;pointerEvents=1;points=[];fillColor=none;resizable=0;rotatable=0;perimeter=centerPerimeter;snapToPoint=1;fontSize=21;" parent="1" vertex="1">
          <mxGeometry x="2090" y="222.5" width="40" height="40" as="geometry" />
        </mxCell>
        <mxCell id="CNNBCrnFb_RWiXShZdrg-26" value="" style="endArrow=none;html=1;rounded=0;fontSize=15;startArrow=none;entryDx=0;entryDy=0;" parent="1" source="CNNBCrnFb_RWiXShZdrg-13" target="CNNBCrnFb_RWiXShZdrg-25" edge="1">
          <mxGeometry width="50" height="50" relative="1" as="geometry">
            <mxPoint x="2100" y="242.5" as="sourcePoint" />
            <mxPoint x="2160" y="242.5" as="targetPoint" />
          </mxGeometry>
        </mxCell>
        <mxCell id="CNNBCrnFb_RWiXShZdrg-27" value="" style="endArrow=none;html=1;rounded=0;fontSize=15;exitDx=0;exitDy=0;exitPerimeter=0;startArrow=none;entryX=1;entryY=0.5;entryDx=0;entryDy=0;exitX=0;exitY=0.5;entryPerimeter=0;" parent="1" source="CNNBCrnFb_RWiXShZdrg-21" target="CNNBCrnFb_RWiXShZdrg-20" edge="1">
          <mxGeometry width="50" height="50" relative="1" as="geometry">
            <mxPoint x="2129.71" y="170.5" as="sourcePoint" />
            <mxPoint x="2129.71" y="149.4999999999999" as="targetPoint" />
          </mxGeometry>
        </mxCell>
        <mxCell id="CNNBCrnFb_RWiXShZdrg-28" value="" style="endArrow=none;html=1;rounded=0;fontSize=15;startArrow=none;entryX=1;entryY=0.5;entryDx=0;entryDy=0;entryPerimeter=0;" parent="1" source="CNNBCrnFb_RWiXShZdrg-25" target="CNNBCrnFb_RWiXShZdrg-21" edge="1">
          <mxGeometry width="50" height="50" relative="1" as="geometry">
            <mxPoint x="2120" y="192.5" as="sourcePoint" />
            <mxPoint x="2120" y="140" as="targetPoint" />
          </mxGeometry>
        </mxCell>
        <mxCell id="CNNBCrnFb_RWiXShZdrg-29" value="&lt;h1 id=&quot;firstHeading&quot; class=&quot;firstHeading mw-first-heading&quot; style=&quot;font-size: 15px&quot;&gt;&lt;font style=&quot;font-size: 15px&quot;&gt;Envelope detector&lt;/font&gt;&lt;/h1&gt;" style="whiteSpace=wrap;html=1;fontSize=20;" parent="1" vertex="1">
          <mxGeometry x="2430" y="37.75" width="100" height="60" as="geometry" />
        </mxCell>
        <mxCell id="CNNBCrnFb_RWiXShZdrg-30" value="&lt;h1 id=&quot;firstHeading&quot; class=&quot;firstHeading mw-first-heading&quot; style=&quot;font-size: 15px&quot;&gt;&lt;font style=&quot;font-size: 15px&quot;&gt;Envelope detector&lt;/font&gt;&lt;/h1&gt;" style="whiteSpace=wrap;html=1;fontSize=20;" parent="1" vertex="1">
          <mxGeometry x="2430" y="211.5" width="100" height="60" as="geometry" />
        </mxCell>
        <mxCell id="CNNBCrnFb_RWiXShZdrg-31" value="&lt;div&gt;&lt;b&gt;10Ω&lt;/b&gt;&lt;/div&gt;" style="pointerEvents=1;verticalLabelPosition=bottom;shadow=0;dashed=0;align=center;html=1;verticalAlign=top;shape=mxgraph.electrical.resistors.resistor_2;rotation=0;labelPosition=center;direction=west;spacing=3;spacingTop=0;spacingLeft=0;" parent="1" vertex="1">
          <mxGeometry x="2280" y="58" width="40" height="20" as="geometry" />
        </mxCell>
        <mxCell id="CNNBCrnFb_RWiXShZdrg-32" value="&lt;b&gt;10nF&lt;/b&gt;" style="pointerEvents=1;verticalLabelPosition=bottom;shadow=0;dashed=0;align=center;html=1;verticalAlign=top;shape=mxgraph.electrical.capacitors.capacitor_1;fontSize=15;" parent="1" vertex="1">
          <mxGeometry x="2340" y="49" width="60" height="38" as="geometry" />
        </mxCell>
        <mxCell id="CNNBCrnFb_RWiXShZdrg-33" value="" style="endArrow=none;html=1;rounded=0;fontSize=15;exitDx=0;exitDy=0;startArrow=none;exitX=1;exitY=0.5;entryX=1;entryY=0.5;entryDx=0;entryDy=0;entryPerimeter=0;" parent="1" target="CNNBCrnFb_RWiXShZdrg-31" edge="1">
          <mxGeometry width="50" height="50" relative="1" as="geometry">
            <mxPoint x="2250" y="68" as="sourcePoint" />
            <mxPoint x="2450" y="149.58000000000004" as="targetPoint" />
          </mxGeometry>
        </mxCell>
        <mxCell id="CNNBCrnFb_RWiXShZdrg-34" value="" style="endArrow=none;html=1;rounded=0;fontSize=15;exitDx=0;exitDy=0;startArrow=none;exitX=0;exitY=0.5;entryX=0;entryY=0.5;entryDx=0;entryDy=0;entryPerimeter=0;exitPerimeter=0;" parent="1" source="CNNBCrnFb_RWiXShZdrg-31" target="CNNBCrnFb_RWiXShZdrg-32" edge="1">
          <mxGeometry width="50" height="50" relative="1" as="geometry">
            <mxPoint x="2260" y="78" as="sourcePoint" />
            <mxPoint x="2280" y="78" as="targetPoint" />
          </mxGeometry>
        </mxCell>
        <mxCell id="CNNBCrnFb_RWiXShZdrg-35" value="" style="endArrow=none;html=1;rounded=0;fontSize=15;exitDx=0;exitDy=0;startArrow=none;exitX=1;exitY=0.5;entryX=0;entryY=0.5;entryDx=0;entryDy=0;exitPerimeter=0;" parent="1" source="CNNBCrnFb_RWiXShZdrg-32" target="CNNBCrnFb_RWiXShZdrg-29" edge="1">
          <mxGeometry width="50" height="50" relative="1" as="geometry">
            <mxPoint x="2390" y="94" as="sourcePoint" />
            <mxPoint x="2420" y="95" as="targetPoint" />
          </mxGeometry>
        </mxCell>
        <mxCell id="CNNBCrnFb_RWiXShZdrg-36" value="&lt;div&gt;&lt;b&gt;10Ω&lt;/b&gt;&lt;/div&gt;" style="pointerEvents=1;verticalLabelPosition=bottom;shadow=0;dashed=0;align=center;html=1;verticalAlign=top;shape=mxgraph.electrical.resistors.resistor_2;rotation=0;labelPosition=center;direction=west;spacing=3;spacingTop=0;spacingLeft=0;" parent="1" vertex="1">
          <mxGeometry x="2280" y="231.5" width="40" height="20" as="geometry" />
        </mxCell>
        <mxCell id="CNNBCrnFb_RWiXShZdrg-37" value="&lt;b&gt;10nF&lt;/b&gt;" style="pointerEvents=1;verticalLabelPosition=bottom;shadow=0;dashed=0;align=center;html=1;verticalAlign=top;shape=mxgraph.electrical.capacitors.capacitor_1;fontSize=15;" parent="1" vertex="1">
          <mxGeometry x="2340" y="222.5" width="60" height="38" as="geometry" />
        </mxCell>
        <mxCell id="CNNBCrnFb_RWiXShZdrg-38" value="" style="endArrow=none;html=1;rounded=0;fontSize=15;exitDx=0;exitDy=0;startArrow=none;exitX=1;exitY=0.5;entryX=1;entryY=0.5;entryDx=0;entryDy=0;entryPerimeter=0;" parent="1" target="CNNBCrnFb_RWiXShZdrg-36" edge="1">
          <mxGeometry width="50" height="50" relative="1" as="geometry">
            <mxPoint x="2250" y="241.5" as="sourcePoint" />
            <mxPoint x="2450" y="323.08000000000004" as="targetPoint" />
          </mxGeometry>
        </mxCell>
        <mxCell id="CNNBCrnFb_RWiXShZdrg-39" value="" style="endArrow=none;html=1;rounded=0;fontSize=15;exitDx=0;exitDy=0;startArrow=none;exitX=0;exitY=0.5;entryX=0;entryY=0.5;entryDx=0;entryDy=0;entryPerimeter=0;exitPerimeter=0;" parent="1" source="CNNBCrnFb_RWiXShZdrg-36" target="CNNBCrnFb_RWiXShZdrg-37" edge="1">
          <mxGeometry width="50" height="50" relative="1" as="geometry">
            <mxPoint x="2260" y="251.5" as="sourcePoint" />
            <mxPoint x="2280" y="251.5" as="targetPoint" />
          </mxGeometry>
        </mxCell>
        <mxCell id="CNNBCrnFb_RWiXShZdrg-40" value="&lt;div&gt;&lt;b&gt;Voltage &lt;br&gt;&lt;/b&gt;&lt;/div&gt;&lt;div&gt;&lt;b&gt;follower&lt;/b&gt;&lt;/div&gt;" style="whiteSpace=wrap;html=1;fontSize=15;" parent="1" vertex="1">
          <mxGeometry x="2570" y="39" width="90" height="60" as="geometry" />
        </mxCell>
        <mxCell id="CNNBCrnFb_RWiXShZdrg-41" value="&lt;div&gt;&lt;b&gt;Voltage &lt;br&gt;&lt;/b&gt;&lt;/div&gt;&lt;div&gt;&lt;b&gt;follower&lt;/b&gt;&lt;/div&gt;" style="whiteSpace=wrap;html=1;fontSize=15;" parent="1" vertex="1">
          <mxGeometry x="2570" y="211.25" width="90" height="60" as="geometry" />
        </mxCell>
        <mxCell id="CNNBCrnFb_RWiXShZdrg-42" value="&lt;div&gt;&lt;font size=&quot;1&quot;&gt;&lt;b style=&quot;font-size: 15px&quot;&gt;Active LPF&lt;/b&gt;&lt;/font&gt;&lt;/div&gt;&lt;div&gt;&lt;b&gt;&lt;i&gt;f&lt;sub&gt;c&lt;/sub&gt;&lt;/i&gt; = 14.3Hz&lt;br&gt;&lt;/b&gt;&lt;/div&gt;" style="whiteSpace=wrap;html=1;" parent="1" vertex="1">
          <mxGeometry x="2710" y="37.75" width="110" height="62.5" as="geometry" />
        </mxCell>
        <mxCell id="CNNBCrnFb_RWiXShZdrg-43" value="&lt;div&gt;&lt;font size=&quot;1&quot;&gt;&lt;b style=&quot;font-size: 15px&quot;&gt;Active LPF&lt;/b&gt;&lt;/font&gt;&lt;/div&gt;&lt;div&gt;&lt;b&gt;&lt;i&gt;f&lt;sub&gt;c&lt;/sub&gt;&lt;/i&gt; = 14.3Hz&lt;br&gt;&lt;/b&gt;&lt;/div&gt;" style="whiteSpace=wrap;html=1;" parent="1" vertex="1">
          <mxGeometry x="2710" y="210" width="110" height="62.5" as="geometry" />
        </mxCell>
        <mxCell id="CNNBCrnFb_RWiXShZdrg-44" value="&lt;font style=&quot;font-size: 14px&quot;&gt;&lt;b&gt;IMPOUT1&lt;/b&gt;&lt;/font&gt;" style="shape=mxgraph.arrows2.arrow;verticalLabelPosition=middle;shadow=0;dashed=0;align=center;html=1;verticalAlign=middle;strokeWidth=1;dy=0;dx=10;notch=0;fontSize=7;labelPosition=center;spacingLeft=-5;" parent="1" vertex="1">
          <mxGeometry x="2860" y="63.5" width="70.75" height="20" as="geometry" />
        </mxCell>
        <mxCell id="CNNBCrnFb_RWiXShZdrg-45" value="&lt;font style=&quot;font-size: 14px&quot;&gt;&lt;b&gt;IMPOUT2&lt;/b&gt;&lt;/font&gt;" style="shape=mxgraph.arrows2.arrow;verticalLabelPosition=middle;shadow=0;dashed=0;align=center;html=1;verticalAlign=middle;strokeWidth=1;dy=0;dx=10;notch=0;fontSize=7;labelPosition=center;spacingLeft=-5;" parent="1" vertex="1">
          <mxGeometry x="2860" y="231.25" width="70.75" height="20" as="geometry" />
        </mxCell>
        <mxCell id="CNNBCrnFb_RWiXShZdrg-46" value="" style="endArrow=none;html=1;rounded=0;fontSize=20;entryX=0;entryY=0.5;entryDx=0;entryDy=0;entryPerimeter=0;exitX=1;exitY=0.5;exitDx=0;exitDy=0;" parent="1" source="CNNBCrnFb_RWiXShZdrg-43" target="CNNBCrnFb_RWiXShZdrg-45" edge="1">
          <mxGeometry width="50" height="50" relative="1" as="geometry">
            <mxPoint x="2840" y="343.5" as="sourcePoint" />
            <mxPoint x="2890" y="293.5" as="targetPoint" />
          </mxGeometry>
        </mxCell>
        <mxCell id="CNNBCrnFb_RWiXShZdrg-47" value="" style="endArrow=none;html=1;rounded=0;fontSize=20;entryX=0;entryY=0.5;entryDx=0;entryDy=0;entryPerimeter=0;exitX=1;exitY=0.5;exitDx=0;exitDy=0;" parent="1" edge="1">
          <mxGeometry width="50" height="50" relative="1" as="geometry">
            <mxPoint x="2820" y="72.84999999999991" as="sourcePoint" />
            <mxPoint x="2860" y="72.84999999999991" as="targetPoint" />
          </mxGeometry>
        </mxCell>
        <mxCell id="CNNBCrnFb_RWiXShZdrg-48" value="" style="endArrow=none;html=1;rounded=0;fontSize=20;entryX=0;entryY=0.5;entryDx=0;entryDy=0;exitX=1;exitY=0.5;exitDx=0;exitDy=0;" parent="1" source="CNNBCrnFb_RWiXShZdrg-40" target="CNNBCrnFb_RWiXShZdrg-42" edge="1">
          <mxGeometry width="50" height="50" relative="1" as="geometry">
            <mxPoint x="2650" y="182.5" as="sourcePoint" />
            <mxPoint x="2910" y="81.84999999999991" as="targetPoint" />
          </mxGeometry>
        </mxCell>
        <mxCell id="CNNBCrnFb_RWiXShZdrg-49" value="" style="endArrow=none;html=1;rounded=0;fontSize=20;entryX=0;entryY=0.5;entryDx=0;entryDy=0;" parent="1" source="CNNBCrnFb_RWiXShZdrg-29" target="CNNBCrnFb_RWiXShZdrg-40" edge="1">
          <mxGeometry width="50" height="50" relative="1" as="geometry">
            <mxPoint x="2720" y="78" as="sourcePoint" />
            <mxPoint x="2750" y="78" as="targetPoint" />
          </mxGeometry>
        </mxCell>
        <mxCell id="CNNBCrnFb_RWiXShZdrg-50" value="" style="endArrow=none;html=1;rounded=0;fontSize=20;entryX=0;entryY=0.5;entryDx=0;entryDy=0;exitX=1;exitY=0.5;exitDx=0;exitDy=0;" parent="1" source="CNNBCrnFb_RWiXShZdrg-30" target="CNNBCrnFb_RWiXShZdrg-41" edge="1">
          <mxGeometry width="50" height="50" relative="1" as="geometry">
            <mxPoint x="2560" y="77.90000000000009" as="sourcePoint" />
            <mxPoint x="2600" y="78" as="targetPoint" />
          </mxGeometry>
        </mxCell>
        <mxCell id="CNNBCrnFb_RWiXShZdrg-51" value="" style="endArrow=none;html=1;rounded=0;fontSize=20;entryX=0;entryY=0.5;entryDx=0;entryDy=0;exitX=1;exitY=0.5;exitDx=0;exitDy=0;" parent="1" source="CNNBCrnFb_RWiXShZdrg-41" target="CNNBCrnFb_RWiXShZdrg-43" edge="1">
          <mxGeometry width="50" height="50" relative="1" as="geometry">
            <mxPoint x="2540" y="252.5" as="sourcePoint" />
            <mxPoint x="2580" y="252.5" as="targetPoint" />
          </mxGeometry>
        </mxCell>
        <mxCell id="CNNBCrnFb_RWiXShZdrg-52" value="" style="endArrow=none;html=1;rounded=0;fontSize=15;exitDx=0;exitDy=0;startArrow=none;exitX=1;exitY=0.5;entryX=0;entryY=0.5;entryDx=0;entryDy=0;exitPerimeter=0;" parent="1" source="CNNBCrnFb_RWiXShZdrg-37" target="CNNBCrnFb_RWiXShZdrg-30" edge="1">
          <mxGeometry width="50" height="50" relative="1" as="geometry">
            <mxPoint x="2410" y="78" as="sourcePoint" />
            <mxPoint x="2440" y="77.75" as="targetPoint" />
          </mxGeometry>
        </mxCell>
        <mxCell id="CNNBCrnFb_RWiXShZdrg-53" value="&lt;div&gt;&lt;b&gt;Voltage &lt;br&gt;&lt;/b&gt;&lt;/div&gt;&lt;div&gt;&lt;b&gt;follower&lt;/b&gt;&lt;/div&gt;" style="whiteSpace=wrap;html=1;fontSize=15;" parent="1" vertex="1">
          <mxGeometry x="2160" y="211.25" width="90" height="60" as="geometry" />
        </mxCell>
        <mxCell id="CNNBCrnFb_RWiXShZdrg-54" value="&lt;div&gt;&lt;b&gt;Voltage &lt;br&gt;&lt;/b&gt;&lt;/div&gt;&lt;div&gt;&lt;b&gt;follower&lt;/b&gt;&lt;/div&gt;" style="whiteSpace=wrap;html=1;fontSize=15;" parent="1" vertex="1">
          <mxGeometry x="2160" y="37.75" width="90" height="60" as="geometry" />
        </mxCell>
        <mxCell id="zh1uuCZdA9-5P3cuNeVg-2" value="" style="endArrow=none;html=1;rounded=0;exitX=0.526;exitY=0.017;exitDx=0;exitDy=0;exitPerimeter=0;" edge="1" parent="1" source="zh1uuCZdA9-5P3cuNeVg-4">
          <mxGeometry width="50" height="50" relative="1" as="geometry">
            <mxPoint x="1850" y="322.5" as="sourcePoint" />
            <mxPoint x="1900" y="272.5" as="targetPoint" />
          </mxGeometry>
        </mxCell>
        <mxCell id="zh1uuCZdA9-5P3cuNeVg-3" value="" style="endArrow=none;html=1;rounded=0;entryX=0.5;entryY=1;entryDx=0;entryDy=0;" edge="1" parent="1" target="CNNBCrnFb_RWiXShZdrg-10">
          <mxGeometry width="50" height="50" relative="1" as="geometry">
            <mxPoint x="1880" y="320" as="sourcePoint" />
            <mxPoint x="1910" y="282.5" as="targetPoint" />
          </mxGeometry>
        </mxCell>
        <mxCell id="zh1uuCZdA9-5P3cuNeVg-4" value="&lt;div&gt;Textile-based electrodes&lt;/div&gt;" style="text;html=1;align=center;verticalAlign=middle;resizable=0;points=[];autosize=1;strokeColor=none;fillColor=none;" vertex="1" parent="1">
          <mxGeometry x="1800" y="320" width="140" height="20" as="geometry" />
        </mxCell>
      </root>
    </mxGraphModel>
  </diagram>
</mxfile>
